<?xml version="1.0" standalone="no"?>
<!DOCTYPE svg PUBLIC "-//W3C//DTD SVG 20010904//EN"
 "http://www.w3.org/TR/2001/REC-SVG-20010904/DTD/svg10.dtd">
<svg version="1.0" xmlns="http://www.w3.org/2000/svg"
 width="1500.000000pt" height="645.000000pt" viewBox="0 0 1500.000000 645.000000"
 preserveAspectRatio="xMidYMid meet">
<metadata>
Created by potrace 1.16, written by Peter Selinger 2001-2019
</metadata>
<g transform="translate(0.000000,645.000000) scale(0.100000,-0.100000)"
fill="#000000" stroke="none">
<path d="M10174 5181 c-126 -46 -223 -135 -283 -261 l-36 -75 -5 -1325 -5
-1325 -681 0 c-741 0 -714 2 -749 -57 -32 -55 -9 -236 49 -380 73 -180 237
-353 411 -433 126 -59 204 -75 361 -75 166 1 244 18 379 85 225 111 380 309
443 565 14 58 17 226 22 1485 l5 1420 22 36 c57 91 124 131 223 131 52 0 78
-6 117 -26 85 -43 125 -104 138 -211 15 -118 111 -165 189 -91 34 32 36 37 36
98 0 169 -118 346 -280 422 -59 27 -76 30 -185 33 -98 2 -130 -1 -171 -16z
m-347 -3248 c-10 -60 -81 -193 -138 -256 -76 -85 -144 -128 -289 -182 -69 -26
-248 -23 -338 4 -202 63 -374 247 -416 444 l-6 27 596 0 597 0 -6 -37z"/>
<path d="M7618 4014 c-118 -41 -176 -155 -181 -353 l-2 -81 -68 0 c-61 0 -71
-3 -92 -26 -33 -36 -33 -81 0 -117 23 -24 33 -27 93 -27 l67 0 0 -368 c0 -333
2 -370 18 -403 22 -44 52 -59 117 -59 41 0 55 5 85 31 l35 31 0 384 0 384 84
0 c107 0 136 18 136 86 0 65 -20 78 -128 84 l-87 5 3 85 c4 98 24 151 62 161
14 4 55 4 92 2 61 -5 68 -4 92 20 18 18 26 37 26 62 0 80 -44 105 -200 111
-80 3 -116 0 -152 -12z"/>
<path d="M6910 4002 c-38 -19 -80 -74 -80 -104 0 -69 71 -128 154 -128 89 0
146 50 146 128 0 95 -121 152 -220 104z"/>
<path d="M1505 4003 c-11 -3 -31 -15 -44 -26 -51 -47 -51 -42 -51 -687 0 -662
-1 -651 62 -690 31 -19 50 -20 360 -20 348 0 398 5 483 48 145 72 219 189 219
347 1 157 -98 294 -241 336 l-41 12 48 24 c55 27 118 91 152 155 20 37 23 58
23 143 0 90 -3 105 -28 153 -56 106 -171 183 -302 202 -69 10 -602 12 -640 3z
m565 -218 c61 -22 97 -59 117 -122 16 -50 16 -56 0 -107 -12 -37 -29 -65 -54
-86 -64 -56 -92 -63 -275 -68 l-168 -4 0 207 0 208 168 -6 c117 -4 180 -10
212 -22z m21 -584 c51 -16 100 -51 126 -90 19 -28 23 -48 23 -108 0 -90 -23
-142 -78 -176 -60 -38 -119 -47 -301 -47 l-171 0 0 221 0 221 183 -5 c100 -2
198 -10 218 -16z"/>
<path d="M9300 3993 c-73 -38 -71 -13 -68 -713 3 -578 4 -627 21 -651 9 -14
29 -31 43 -37 36 -17 116 -15 142 4 53 37 52 24 52 698 0 451 -3 632 -12 650
-25 56 -116 81 -178 49z"/>
<path d="M6314 3933 c-12 -2 -34 -17 -50 -34 -24 -26 -30 -41 -36 -107 -3 -42
-7 -107 -7 -144 l-1 -68 -66 0 c-78 0 -101 -11 -120 -56 -30 -72 36 -141 128
-132 l38 4 0 -248 c0 -272 10 -381 43 -446 27 -56 85 -108 134 -121 56 -16
237 -14 277 3 70 29 97 106 55 160 -19 25 -25 26 -109 26 -77 0 -92 3 -108 21
-28 30 -32 67 -32 349 l0 255 62 -3 c121 -7 176 30 165 111 -9 64 -31 77 -138
77 l-89 0 0 146 c0 85 -4 154 -11 166 -12 21 -68 49 -96 47 -10 -1 -28 -4 -39
-6z"/>
<path d="M3112 3585 c-179 -41 -315 -173 -377 -365 -23 -71 -23 -204 0 -285
50 -174 165 -296 324 -345 81 -25 264 -28 354 -4 189 49 294 167 217 244 -28
28 -58 25 -135 -11 -68 -31 -175 -59 -232 -59 -143 -1 -258 92 -279 228 l-7
42 342 0 342 0 26 26 c24 24 25 30 20 97 -7 80 -34 169 -72 232 -29 50 -119
135 -167 158 -100 47 -254 65 -356 42z m223 -194 c22 -10 50 -28 62 -40 28
-26 63 -94 74 -138 l7 -33 -249 0 -249 0 6 28 c18 72 75 152 133 182 49 26
161 27 216 1z"/>
<path d="M4155 3583 c-189 -33 -301 -142 -234 -228 19 -23 27 -26 63 -22 23 2
75 17 116 32 105 39 228 46 293 17 38 -17 52 -30 67 -64 11 -24 20 -59 20 -79
l0 -36 -162 -6 c-210 -8 -306 -35 -395 -112 -62 -53 -93 -126 -93 -220 0 -68
4 -85 32 -138 59 -111 150 -157 309 -157 121 0 187 22 257 85 51 46 62 48 62
9 0 -55 39 -84 116 -84 39 0 51 5 80 34 l35 35 -3 343 -3 343 -29 63 c-31 67
-95 133 -153 157 -47 20 -192 45 -249 44 -27 -1 -85 -8 -129 -16z m321 -594
c-12 -124 -50 -189 -129 -231 -56 -29 -149 -31 -199 -4 -43 23 -78 80 -78 126
0 103 123 164 344 169 l69 1 -7 -61z"/>
<path d="M10689 3585 c-93 -20 -148 -42 -200 -80 -132 -98 -198 -226 -207
-402 -4 -90 -2 -112 21 -185 53 -170 161 -281 319 -329 90 -27 281 -27 371 1
250 77 388 344 323 624 -46 196 -187 329 -392 370 -93 18 -155 19 -235 1z
m219 -194 c61 -32 106 -90 133 -171 23 -72 18 -242 -9 -310 -68 -173 -263
-223 -389 -99 -45 43 -59 72 -79 156 -40 171 21 363 134 423 51 26 159 27 210
1z"/>
<path d="M13160 3581 c-95 -26 -111 -34 -171 -89 l-54 -49 -2 31 c-5 65 -58
106 -136 106 -42 0 -54 -5 -83 -34 l-34 -34 0 -619 0 -618 23 -28 c27 -34 86
-50 140 -37 88 19 99 56 95 312 l-3 196 52 -49 c77 -72 126 -91 255 -97 86 -3
116 -1 155 14 71 26 124 66 170 126 55 71 68 100 93 199 18 69 21 102 17 189
-8 176 -52 291 -145 386 -55 57 -93 78 -182 100 -71 17 -110 16 -190 -5z m142
-204 c26 -20 54 -55 72 -91 27 -51 30 -70 34 -169 5 -137 -9 -211 -51 -274
-75 -112 -235 -125 -333 -27 -60 59 -84 138 -84 274 0 222 73 319 242 320 71
0 79 -2 120 -33z"/>
<path d="M5025 3571 c-11 -5 -29 -19 -40 -31 -19 -21 -20 -36 -20 -369 l0
-346 31 -66 c36 -75 86 -129 153 -161 37 -18 67 -23 151 -26 132 -5 194 15
275 90 l55 50 0 -32 c0 -23 9 -41 34 -66 30 -30 40 -34 85 -34 29 0 65 7 81
15 60 31 60 35 60 480 0 380 -1 408 -19 443 -11 21 -31 43 -46 50 -37 17 -111
15 -141 -4 -51 -34 -54 -51 -54 -351 -1 -298 -4 -322 -53 -387 -29 -37 -102
-76 -158 -83 -73 -10 -149 32 -180 101 -17 37 -19 70 -19 334 0 318 -3 339
-55 380 -29 23 -99 29 -140 13z"/>
<path d="M6895 3547 l-35 -35 0 -432 0 -432 34 -34 c30 -30 40 -34 89 -34 67
0 111 30 127 88 13 49 13 774 0 823 -16 57 -50 82 -120 87 -57 4 -61 3 -95
-31z"/>
<path d="M8125 3569 c-11 -6 -29 -22 -40 -37 -19 -25 -20 -45 -23 -317 -2
-183 1 -314 8 -355 23 -132 107 -238 221 -275 39 -13 75 -16 152 -13 121 5
175 26 249 98 l48 46 0 -35 c1 -65 47 -101 130 -101 46 0 56 4 86 34 l34 34 0
431 0 431 -29 32 c-24 27 -36 32 -89 36 -60 4 -63 3 -97 -31 l-35 -35 0 -274
c0 -307 -7 -351 -63 -415 -101 -115 -265 -107 -329 16 l-28 53 0 300 c0 328
-2 343 -60 373 -33 17 -105 19 -135 4z"/>
<path d="M11554 3546 l-35 -35 3 -343 3 -343 32 -67 c39 -83 98 -141 171 -168
48 -18 74 -21 162 -18 123 4 174 23 253 96 l47 45 0 -33 c0 -23 9 -41 34 -66
30 -30 40 -34 85 -34 59 0 104 20 123 53 10 17 13 120 15 432 2 456 1 467 -61
500 -48 26 -129 17 -164 -19 l-27 -26 -5 -308 -5 -307 -28 -48 c-32 -54 -82
-91 -147 -108 -89 -24 -168 13 -210 96 -25 49 -25 54 -30 363 l-5 314 -33 29
c-27 25 -41 29 -88 29 -50 0 -59 -3 -90 -34z"/>
</g>
</svg>
